<svg xmlns="http://www.w3.org/2000/svg" viewBox="0 0 900 200">
  <defs>
    <linearGradient id="bg" x1="0%" y1="0%" x2="100%" y2="100%">
      <stop offset="0%" style="stop-color:#FF8F00"/>
      <stop offset="100%" style="stop-color:#1A1A2E"/>
    </linearGradient>
    <linearGradient id="accent" x1="0%" y1="0%" x2="0%" y2="100%">
      <stop offset="0%" style="stop-color:#FFB300"/>
      <stop offset="100%" style="stop-color:#E65100"/>
    </linearGradient>
  </defs>

  <!-- Background -->
  <rect width="900" height="200" rx="12" fill="url(#bg)"/>

  <!-- Subtle grid -->
  <g stroke="white" stroke-width="0.5" opacity="0.04">
    <line x1="0" y1="40" x2="900" y2="40"/>
    <line x1="0" y1="80" x2="900" y2="80"/>
    <line x1="0" y1="120" x2="900" y2="120"/>
    <line x1="0" y1="160" x2="900" y2="160"/>
    <line x1="150" y1="0" x2="150" y2="200"/>
    <line x1="300" y1="0" x2="300" y2="200"/>
    <line x1="450" y1="0" x2="450" y2="200"/>
    <line x1="600" y1="0" x2="600" y2="200"/>
    <line x1="750" y1="0" x2="750" y2="200"/>
  </g>

  <!-- Music note with Telegram paper plane icon -->
  <g transform="translate(40, 40)">
    <!-- Music note -->
    <g fill="url(#accent)">
      <!-- Note stem -->
      <rect x="55" y="15" width="5" height="60" rx="2" opacity="0.9"/>
      <!-- Note head -->
      <ellipse cx="48" cy="75" rx="14" ry="10" transform="rotate(-15, 48, 75)" opacity="0.9"/>
      <!-- Note flag -->
      <path d="M60,15 Q75,25 68,45 Q65,35 60,30 Z" opacity="0.8"/>
    </g>
    <!-- Telegram paper plane -->
    <g transform="translate(25, 18)" fill="white" opacity="0.35">
      <polygon points="0,20 40,0 35,42 18,28"/>
      <polygon points="18,28 35,42 22,30" fill="white" opacity="0.25"/>
    </g>
    <!-- Sound waves -->
    <g fill="none" stroke="white" stroke-width="2" opacity="0.2">
      <path d="M75,50 Q82,40 75,30"/>
      <path d="M82,55 Q92,40 82,25"/>
      <path d="M89,60 Q102,40 89,20"/>
    </g>
  </g>

  <!-- Title -->
  <text x="200" y="90" font-family="'Segoe UI', 'Helvetica Neue', Arial, sans-serif" font-size="42" font-weight="bold" fill="white">telegram-slskd-local-bot</text>

  <!-- Subtitle -->
  <text x="200" y="126" font-family="'Segoe UI', 'Helvetica Neue', Arial, sans-serif" font-size="17" fill="white" opacity="0.7">Automated music discovery and download via Telegram</text>

  <!-- Decorative elements on the right -->
  <g transform="translate(730, 25)" opacity="0.1" fill="white">
    <!-- Vinyl record -->
    <circle cx="40" cy="40" r="30" fill="none" stroke="white" stroke-width="3"/>
    <circle cx="40" cy="40" r="20" fill="none" stroke="white" stroke-width="1"/>
    <circle cx="40" cy="40" r="10" fill="none" stroke="white" stroke-width="1"/>
    <circle cx="40" cy="40" r="4"/>
  </g>

  <!-- Equalizer bars decorative -->
  <g transform="translate(770, 110)" opacity="0.12" fill="white">
    <rect x="0" y="30" width="10" height="40" rx="2"/>
    <rect x="15" y="15" width="10" height="55" rx="2"/>
    <rect x="30" y="25" width="10" height="45" rx="2"/>
    <rect x="45" y="5" width="10" height="65" rx="2"/>
    <rect x="60" y="20" width="10" height="50" rx="2"/>
    <rect x="75" y="35" width="10" height="35" rx="2"/>
    <rect x="90" y="10" width="10" height="60" rx="2"/>
  </g>

  <!-- Small paper planes -->
  <g opacity="0.08" fill="white">
    <polygon points="820,140 850,130 845,155 832,145" transform="rotate(15, 835, 143)"/>
    <polygon points="760,160 780,155 778,170 768,165" transform="rotate(-10, 770, 163)"/>
  </g>
</svg>
